<svg version="1.1" viewBox="0.0 0.0 382.5459317585302 110.49343832020998" fill="none" stroke="none" stroke-linecap="square" stroke-miterlimit="10" xmlns:xlink="http://www.w3.org/1999/xlink" xmlns="http://www.w3.org/2000/svg"><clipPath id="p.0"><path d="m0 0l382.54593 0l0 110.49344l-382.54593 0l0 -110.49344z" clip-rule="nonzero"/></clipPath><g clip-path="url(#p.0)"><path fill="#000000" fill-opacity="0.0" d="m0 0l382.54593 0l0 110.49344l-382.54593 0z" fill-rule="evenodd"/><path fill="#f3f3f3" d="m0 0l382.55118 0l0 110.48819l-382.55118 0z" fill-rule="evenodd"/><g filter="url(#shadowFilter-p.1)"><use xlink:href="#p.1" transform="matrix(1.0 0.0 0.0 1.0 -3.5267115485564307 4.854101837270337)"/></g><defs><filter id="shadowFilter-p.1" filterUnits="userSpaceOnUse"><feGaussianBlur in="SourceAlpha" stdDeviation="1.0" result="blur"/><feComponentTransfer in="blur" color-interpolation-filters="sRGB"><feFuncR type="linear" slope="0" intercept="0.5019608"/><feFuncG type="linear" slope="0" intercept="0.26666668"/><feFuncB type="linear" slope="0" intercept="0.26666668"/><feFuncA type="linear" slope="0.79" intercept="0"/></feComponentTransfer></filter></defs><g id="p.1"><path fill="#000000" fill-opacity="0.0" d="m5.6981626 0l371.14963 0l0 111.49606l-371.14963 0z" fill-rule="evenodd"/><path fill="#804444" d="m17.807537 28.756874l22.125 0l0 7.609375l-13.765625 0l0 14.8125l10.796875 0l0 7.59375l-10.796875 0l0 23.1875l-8.359375 0l0 -53.203125zm26.143997 0l8.359375 0l0 53.203125l-8.359375 0l0 -53.203125zm14.591995 0l8.359379 0l0 45.609375l13.765625 0l0 7.59375l-22.125004 0l0 -53.203125zm26.144001 0l11.9375 0l5.328125 38.078125l0.140625 0l5.328125 -38.078125l11.921875 0l0 53.203125l-7.890625 0l0 -40.28125l-0.15625 0l-6.078125 40.28125l-7.0 0l-6.078125 -40.28125l-0.15625 0l0 40.28125l-7.296875 0l0 -53.203125zm52.669235 53.96875q-6.0 0 -9.15625 -3.421875q-3.15625 -3.421875 -3.15625 -9.65625l0 -28.578125q0 -6.234375 3.15625 -9.640625q3.15625 -3.421875 9.15625 -3.421875q6.015625 0 9.15625 3.421875q3.15625 3.40625 3.15625 9.640625l0 5.625l-7.90625 0l0 -6.15625q0 -4.9375 -4.171875 -4.9375q-4.1875 0 -4.1875 4.9375l0 29.71875q0 4.859375 4.1875 4.859375q4.171875 0 4.171875 -4.859375l0 -8.140625l7.90625 0l0 7.53125q0 6.234375 -3.15625 9.65625q-3.140625 3.421875 -9.15625 3.421875zm29.57248 0q-6.15625 0 -9.421875 -3.5q-3.265625 -3.5 -3.265625 -9.875l0 -27.96875q0 -6.390625 3.265625 -9.875q3.265625 -3.5 9.421875 -3.5q6.15625 0 9.421875 3.5q3.265625 3.484375 3.265625 9.875l0 27.96875q0 6.375 -3.265625 9.875q-3.265625 3.5 -9.421875 3.5zm0 -7.609375q4.328125 0 4.328125 -5.234375l0 -29.03125q0 -5.25 -4.328125 -5.25q-4.328125 0 -4.328125 5.25l0 29.03125q0 5.234375 4.328125 5.234375zm18.306244 -46.359375l8.359375 0l0 45.609375l13.765625 0l0 7.59375l-22.125 0l0 -53.203125zm26.143997 0l8.359375 0l0 45.609375l13.765625 0l0 7.59375l-22.125 0l0 -53.203125zm26.143997 0l22.812485 0l0 7.609375l-14.45311 0l0 14.046875l11.48436 0l0 7.609375l-11.48436 0l0 16.34375l14.45311 0l0 7.59375l-22.812485 0l0 -53.203125zm39.369247 53.96875q-6.0 0 -9.15625 -3.421875q-3.15625 -3.421875 -3.15625 -9.65625l0 -28.578125q0 -6.234375 3.15625 -9.640625q3.15625 -3.421875 9.15625 -3.421875q6.015625 0 9.15625 3.421875q3.15625 3.40625 3.15625 9.640625l0 5.625l-7.90625 0l0 -6.15625q0 -4.9375 -4.171875 -4.9375q-4.1875 0 -4.1875 4.9375l0 29.71875q0 4.859375 4.1875 4.859375q4.171875 0 4.171875 -4.859375l0 -8.140625l7.90625 0l0 7.53125q0 6.234375 -3.15625 9.65625q-3.140625 3.421875 -9.15625 3.421875zm23.873596 -46.359375l-8.75 0l0 -7.609375l25.84375 0l0 7.609375l-8.734375 0l0 45.59375l-8.359375 0l0 -45.59375zm21.117126 -7.609375l8.359375 0l0 53.203125l-8.359375 0l0 -53.203125zm14.59198 0l22.8125 0l0 7.609375l-14.453125 0l0 14.046875l11.484375 0l0 7.609375l-11.484375 0l0 16.34375l14.453125 0l0 7.59375l-22.8125 0l0 -53.203125z" fill-rule="nonzero"/></g></g></svg>